<svg width="25" height="23" viewBox="0 0 25 23" fill="none" xmlns="http://www.w3.org/2000/svg">
<path d="M12.5 0C10.8585 0 9.23303 0.304841 7.71646 0.897119C6.19989 1.4894 4.8219 2.35751 3.66117 3.4519C1.31696 5.66211 0 8.6598 0 11.7855C0 16.9947 3.5875 21.4143 8.55 22.9817C9.175 23.076 9.375 22.7107 9.375 22.3925V20.4007C5.9125 21.1078 5.175 18.8215 5.175 18.8215C4.6 17.4543 3.7875 17.089 3.7875 17.089C2.65 16.3583 3.875 16.3819 3.875 16.3819C5.125 16.4644 5.7875 17.5958 5.7875 17.5958C6.875 19.3872 8.7125 18.8568 9.425 18.574C9.5375 17.8079 9.8625 17.2893 10.2125 16.9947C7.4375 16.7001 4.525 15.6865 4.525 11.1962C4.525 9.88804 5 8.83913 5.8125 8.00236C5.6875 7.70772 5.25 6.48203 5.9375 4.89099C5.9375 4.89099 6.9875 4.57278 9.375 6.09311C10.3625 5.83383 11.4375 5.70419 12.5 5.70419C13.5625 5.70419 14.6375 5.83383 15.625 6.09311C18.0125 4.57278 19.0625 4.89099 19.0625 4.89099C19.75 6.48203 19.3125 7.70772 19.1875 8.00236C20 8.83913 20.475 9.88804 20.475 11.1962C20.475 15.6983 17.55 16.6883 14.7625 16.9829C15.2125 17.3483 15.625 18.0672 15.625 19.1632V22.3925C15.625 22.7107 15.825 23.0878 16.4625 22.9817C21.425 21.4025 25 16.9947 25 11.7855C25 10.2378 24.6767 8.70527 24.0485 7.27539C23.4203 5.84551 22.4996 4.54628 21.3388 3.4519C20.1781 2.35751 18.8001 1.4894 17.2835 0.897119C15.767 0.304841 14.1415 0 12.5 0Z" fill="black"/>
</svg>
