<svg width="21" height="19" viewBox="0 0 21 19" fill="none" xmlns="http://www.w3.org/2000/svg">
<path d="M11.5794 0C12.7606 0.00278564 13.3601 0.00835692 13.8777 0.0213566L14.0814 0.0278564C14.3166 0.0352847 14.5487 0.0445702 14.829 0.0557127C15.9461 0.10214 16.7084 0.258136 17.3772 0.487487C18.0702 0.723338 18.654 1.04276 19.2377 1.5581C19.7716 2.02228 20.1847 2.58376 20.4483 3.20349C20.7076 3.79497 20.884 4.46909 20.9365 5.458C20.9491 5.70499 20.9596 5.9102 20.968 6.11912L20.9743 6.29926C20.9901 6.7561 20.9964 7.2863 20.9985 8.33092L20.9995 9.02361V10.24C21.0021 10.9173 20.9941 11.5946 20.9754 12.2717L20.9691 12.4518C20.9607 12.6607 20.9502 12.8659 20.9376 13.1129C20.8851 14.1018 20.7066 14.775 20.4483 15.3674C20.1855 15.9875 19.7723 16.5491 19.2377 17.0128C18.7127 17.4848 18.0779 17.8501 17.3772 18.0834C16.7084 18.3128 15.9461 18.4688 14.829 18.5152C14.5799 18.5256 14.3307 18.5349 14.0814 18.5431L13.8777 18.5486C13.3601 18.5616 12.7606 18.5681 11.5794 18.57L10.7962 18.5709H9.42177C8.65559 18.5733 7.8894 18.5661 7.12344 18.5496L6.91975 18.544C6.6705 18.5357 6.42131 18.5261 6.17219 18.5152C5.05505 18.4688 4.29279 18.3128 3.62292 18.0834C2.92226 17.8507 2.28762 17.4853 1.76347 17.0128C1.22909 16.5488 0.815599 15.9873 0.551828 15.3674C0.292491 14.776 0.1161 14.1018 0.0636025 13.1129C0.0519049 12.8926 0.0414053 12.6722 0.0321042 12.4518L0.0268546 12.2717C0.00750622 11.5946 -0.00124427 10.9173 0.00060582 10.24V8.33092C-0.00232454 7.65364 0.00537588 6.97635 0.0237047 6.29926L0.0310543 6.11912C0.0394539 5.9102 0.0499533 5.70499 0.0625527 5.458C0.11505 4.46909 0.291441 3.7959 0.550777 3.20349C0.814434 2.58313 1.22875 2.02147 1.76452 1.5581C2.28853 1.08591 2.92276 0.72054 3.62292 0.487487C4.29279 0.258136 5.054 0.10214 6.17219 0.0557127C6.45148 0.0445702 6.68456 0.0352847 6.91975 0.0278564L7.12344 0.022285C7.88905 0.00578736 8.65489 -0.00133218 9.42072 0.000928479L11.5794 0ZM10.5001 4.64273C9.10775 4.64273 7.77246 5.13188 6.78795 6.00256C5.80343 6.87324 5.25034 8.05414 5.25034 9.28547C5.25034 10.5168 5.80343 11.6977 6.78795 12.5684C7.77246 13.4391 9.10775 13.9282 10.5001 13.9282C11.8924 13.9282 13.2277 13.4391 14.2122 12.5684C15.1967 11.6977 15.7498 10.5168 15.7498 9.28547C15.7498 8.05414 15.1967 6.87324 14.2122 6.00256C13.2277 5.13188 11.8924 4.64273 10.5001 4.64273ZM10.5001 6.49983C10.9137 6.49976 11.3233 6.57176 11.7055 6.71169C12.0877 6.85163 12.435 7.05676 12.7275 7.31539C13.02 7.57402 13.2521 7.88107 13.4105 8.21902C13.5688 8.55696 13.6504 8.91918 13.6504 9.285C13.6505 9.65082 13.5691 10.0131 13.4109 10.3511C13.2526 10.689 13.0207 10.9962 12.7282 11.2549C12.4358 11.5136 12.0886 11.7188 11.7065 11.8589C11.3243 11.9989 10.9148 12.071 10.5011 12.0711C9.66573 12.0711 8.86456 11.7776 8.27385 11.2552C7.68314 10.7328 7.35128 10.0243 7.35128 9.28547C7.35128 8.54667 7.68314 7.83813 8.27385 7.31572C8.86456 6.79331 9.66573 6.49983 10.5011 6.49983M16.0133 3.24991C15.6653 3.24991 15.3314 3.3722 15.0853 3.58987C14.8392 3.80754 14.7009 4.10276 14.7009 4.4106C14.7009 4.71843 14.8392 5.01365 15.0853 5.23132C15.3314 5.44899 15.6653 5.57128 16.0133 5.57128C16.3614 5.57128 16.6952 5.44899 16.9414 5.23132C17.1875 5.01365 17.3258 4.71843 17.3258 4.4106C17.3258 4.10276 17.1875 3.80754 16.9414 3.58987C16.6952 3.3722 16.3614 3.24991 16.0133 3.24991Z" fill="black"/>
</svg>
