<svg width="25" height="16" viewBox="0 0 25 16" fill="none" xmlns="http://www.w3.org/2000/svg">
<path d="M10 11.1707L16.4875 7.81952L10 4.4683V11.1707ZM24.45 2.42405C24.6125 2.94908 24.725 3.65283 24.8 4.54649C24.8875 5.44015 24.925 6.21093 24.925 6.88118L25 7.81952C25 10.2659 24.8 12.0644 24.45 13.215C24.1375 14.2204 23.4125 14.8683 22.2875 15.1475C21.7 15.2927 20.625 15.3933 18.975 15.4603C17.35 15.5385 15.8625 15.572 14.4875 15.572L12.5 15.639C7.2625 15.639 4 15.4603 2.7125 15.1475C1.5875 14.8683 0.8625 14.2204 0.55 13.215C0.3875 12.69 0.275 11.9862 0.2 11.0925C0.1125 10.1989 0.0749999 9.42811 0.0749999 8.75786L0 7.81952C0 5.37313 0.2 3.57464 0.55 2.42405C0.8625 1.41868 1.5875 0.770781 2.7125 0.491513C3.3 0.346293 4.375 0.245756 6.025 0.178732C7.65 0.100537 9.1375 0.0670244 10.5125 0.0670244L12.5 0C17.7375 0 21 0.178732 22.2875 0.491513C23.4125 0.770781 24.1375 1.41868 24.45 2.42405Z" fill="black"/>
</svg>
